# xmcd
#
# Track frame offsets: 
#        182
#        9565
#        20645
#        30712
#        41777
#        53750
#        67455
#        77680
#        86392
#        97857
#        107147
#        148462
#        172160
#        197760
#
# Disc length: 3066 seconds
#
# Revision: 3
# Processed by: cddbd v1.5.2PL0 Copyright (c) Steve Scherf et al.
# Submitted via: ExactAudioCopyFreeDBPlugin 1.0
#
DISCID=c50bf80e
DTITLE=Canned Heat - Let's Work Together [Goldies]
DYEAR=2001
DGENRE=Blues
TTITLE0=Big Road Blues
TTITLE1=Spoonful
TTITLE2=Rollin' and Tumblin'
TTITLE3=I Can't Hold Out
TTITLE4=Got My Mojo Working
TTITLE5=Louise
TTITLE6=Dimples
TTITLE7=Pretty Thing
TTITLE8=Big Road Blues (reprise)
TTITLE9=Rollin' and Tumblin' (reprise with Harmonica)
TTITLE10=When Things Go Wrong
TTITLE11=I'd Rather Be the Devil
TTITLE12=(I Believe I'll) Dust My Broom
TTITLE13=Bullfrog Blues
EXTD=
EXTT0=
EXTT1=
EXTT2=
EXTT3=
EXTT4=
EXTT5=
EXTT6=
EXTT7=
EXTT8=
EXTT9=
EXTT10=
EXTT11=
EXTT12=
EXTT13=
PLAYORDER=
